<?xml version="1.0" standalone="no"?>
<!DOCTYPE svg PUBLIC "-//W3C//DTD SVG 20010904//EN"
 "http://www.w3.org/TR/2001/REC-SVG-20010904/DTD/svg10.dtd">
<svg version="1.0" xmlns="http://www.w3.org/2000/svg"
 width="109.000000pt" height="83.000000pt" viewBox="0 0 109.000000 83.000000"
 preserveAspectRatio="xMidYMid meet">

<g transform="translate(0.000000,83.000000) scale(0.100000,-0.100000)"
fill="#000000" stroke="none">
<path d="M10 745 l0 -75 330 0 330 0 0 75 0 75 -330 0 -330 0 0 -75z"/>
<path d="M10 445 l0 -75 235 0 235 0 0 75 0 75 -235 0 -235 0 0 -75z"/>
<path d="M560 445 l0 -75 90 0 90 0 0 -180 0 -180 80 0 80 0 0 180 0 180 90 0
90 0 0 75 0 75 -260 0 -260 0 0 -75z m510 0 l0 -65 -90 0 -90 0 0 -180 0 -180
-70 0 -70 0 0 180 0 180 -90 0 -90 0 0 65 0 65 250 0 250 0 0 -65z"/>
<path d="M10 145 l0 -75 325 0 325 0 0 75 0 75 -325 0 -325 0 0 -75z"/>
</g>
</svg>
